<mxfile host="app.diagrams.net" modified="2020-12-02T01:39:43.720Z" agent="5.0 (Windows)" etag="6lHhrJL6rOV0ZvqgCItC" version="13.10.5" type="github">
  <diagram id="C5RBs43oDa-KdzZeNtuy" name="Page-1">
    <mxGraphModel dx="782" dy="443" grid="1" gridSize="10" guides="1" tooltips="1" connect="1" arrows="1" fold="1" page="1" pageScale="1" pageWidth="827" pageHeight="1169" math="0" shadow="0">
      <root>
        <mxCell id="WIyWlLk6GJQsqaUBKTNV-0" />
        <mxCell id="WIyWlLk6GJQsqaUBKTNV-1" parent="WIyWlLk6GJQsqaUBKTNV-0" />
        <mxCell id="EfzO_st6ndVhNeIX4S6R-2" style="edgeStyle=orthogonalEdgeStyle;rounded=0;orthogonalLoop=1;jettySize=auto;html=1;exitX=0.5;exitY=1;exitDx=0;exitDy=0;" edge="1" parent="WIyWlLk6GJQsqaUBKTNV-1" source="EfzO_st6ndVhNeIX4S6R-0">
          <mxGeometry relative="1" as="geometry">
            <mxPoint x="370" y="180" as="targetPoint" />
          </mxGeometry>
        </mxCell>
        <mxCell id="EfzO_st6ndVhNeIX4S6R-0" value="Начало" style="ellipse;whiteSpace=wrap;html=1;" vertex="1" parent="WIyWlLk6GJQsqaUBKTNV-1">
          <mxGeometry x="310" y="90" width="120" height="50" as="geometry" />
        </mxCell>
        <mxCell id="EfzO_st6ndVhNeIX4S6R-3" value="" style="endArrow=none;dashed=1;html=1;exitX=1;exitY=0.5;exitDx=0;exitDy=0;entryX=0;entryY=0.5;entryDx=0;entryDy=0;entryPerimeter=0;" edge="1" parent="WIyWlLk6GJQsqaUBKTNV-1" source="EfzO_st6ndVhNeIX4S6R-0" target="EfzO_st6ndVhNeIX4S6R-7">
          <mxGeometry width="50" height="50" relative="1" as="geometry">
            <mxPoint x="390" y="370" as="sourcePoint" />
            <mxPoint x="480" y="115" as="targetPoint" />
          </mxGeometry>
        </mxCell>
        <mxCell id="EfzO_st6ndVhNeIX4S6R-7" value="&lt;div&gt;&lt;b&gt;CheckLoops(struct top *tops)&lt;/b&gt;&lt;/div&gt;&lt;div&gt;&lt;b&gt;#Найти все петли&lt;/b&gt;&lt;/div&gt;&lt;div&gt;&lt;b&gt;#Структура, включающая в себя,&lt;/b&gt;&lt;/div&gt;&lt;div&gt;&lt;b&gt;массив вершин и значений вершин.&lt;br&gt;&lt;/b&gt;&lt;/div&gt;" style="strokeWidth=2;html=1;shape=mxgraph.flowchart.annotation_1;align=left;pointerEvents=1;" vertex="1" parent="WIyWlLk6GJQsqaUBKTNV-1">
          <mxGeometry x="490" y="82.5" width="20" height="65" as="geometry" />
        </mxCell>
        <mxCell id="EfzO_st6ndVhNeIX4S6R-13" value="" style="edgeStyle=orthogonalEdgeStyle;rounded=0;orthogonalLoop=1;jettySize=auto;html=1;" edge="1" parent="WIyWlLk6GJQsqaUBKTNV-1" source="EfzO_st6ndVhNeIX4S6R-9" target="EfzO_st6ndVhNeIX4S6R-12">
          <mxGeometry relative="1" as="geometry" />
        </mxCell>
        <mxCell id="EfzO_st6ndVhNeIX4S6R-9" value="&lt;div&gt;Цикл for&lt;/div&gt;&lt;div&gt;от i=0 до SIZE&lt;br&gt;&lt;/div&gt;" style="strokeWidth=2;html=1;shape=mxgraph.flowchart.loop_limit;whiteSpace=wrap;" vertex="1" parent="WIyWlLk6GJQsqaUBKTNV-1">
          <mxGeometry x="320" y="180" width="100" height="40" as="geometry" />
        </mxCell>
        <mxCell id="EfzO_st6ndVhNeIX4S6R-10" value="" style="endArrow=none;dashed=1;html=1;exitX=1;exitY=0.5;exitDx=0;exitDy=0;exitPerimeter=0;" edge="1" parent="WIyWlLk6GJQsqaUBKTNV-1" source="EfzO_st6ndVhNeIX4S6R-9">
          <mxGeometry width="50" height="50" relative="1" as="geometry">
            <mxPoint x="430" y="200" as="sourcePoint" />
            <mxPoint x="480" y="200" as="targetPoint" />
          </mxGeometry>
        </mxCell>
        <mxCell id="EfzO_st6ndVhNeIX4S6R-11" value="&lt;b&gt;#SIZE - размер матрицы смежности&lt;/b&gt;" style="strokeWidth=2;html=1;shape=mxgraph.flowchart.annotation_1;align=left;pointerEvents=1;" vertex="1" parent="WIyWlLk6GJQsqaUBKTNV-1">
          <mxGeometry x="475" y="170" width="50" height="60" as="geometry" />
        </mxCell>
        <mxCell id="EfzO_st6ndVhNeIX4S6R-14" style="edgeStyle=orthogonalEdgeStyle;rounded=0;orthogonalLoop=1;jettySize=auto;html=1;entryX=1;entryY=0.5;entryDx=0;entryDy=0;" edge="1" parent="WIyWlLk6GJQsqaUBKTNV-1" source="EfzO_st6ndVhNeIX4S6R-12" target="EfzO_st6ndVhNeIX4S6R-18">
          <mxGeometry relative="1" as="geometry">
            <mxPoint x="420" y="470" as="targetPoint" />
            <Array as="points">
              <mxPoint x="470" y="300" />
              <mxPoint x="470" y="455" />
            </Array>
          </mxGeometry>
        </mxCell>
        <mxCell id="EfzO_st6ndVhNeIX4S6R-15" style="edgeStyle=orthogonalEdgeStyle;rounded=0;orthogonalLoop=1;jettySize=auto;html=1;" edge="1" parent="WIyWlLk6GJQsqaUBKTNV-1" source="EfzO_st6ndVhNeIX4S6R-12" target="EfzO_st6ndVhNeIX4S6R-16">
          <mxGeometry relative="1" as="geometry">
            <mxPoint x="370" y="370" as="targetPoint" />
          </mxGeometry>
        </mxCell>
        <mxCell id="EfzO_st6ndVhNeIX4S6R-12" value="&lt;div&gt;Если tops[i].&lt;/div&gt;arrTops[i]!=0" style="rhombus;whiteSpace=wrap;html=1;strokeWidth=2;" vertex="1" parent="WIyWlLk6GJQsqaUBKTNV-1">
          <mxGeometry x="317.5" y="260" width="105" height="80" as="geometry" />
        </mxCell>
        <mxCell id="EfzO_st6ndVhNeIX4S6R-17" style="edgeStyle=orthogonalEdgeStyle;rounded=0;orthogonalLoop=1;jettySize=auto;html=1;" edge="1" parent="WIyWlLk6GJQsqaUBKTNV-1" source="EfzO_st6ndVhNeIX4S6R-16" target="EfzO_st6ndVhNeIX4S6R-18">
          <mxGeometry relative="1" as="geometry">
            <mxPoint x="370" y="440" as="targetPoint" />
          </mxGeometry>
        </mxCell>
        <mxCell id="EfzO_st6ndVhNeIX4S6R-16" value="Увеличиваем quantity на 1" style="rounded=0;whiteSpace=wrap;html=1;" vertex="1" parent="WIyWlLk6GJQsqaUBKTNV-1">
          <mxGeometry x="320" y="370" width="100" height="30" as="geometry" />
        </mxCell>
        <mxCell id="EfzO_st6ndVhNeIX4S6R-21" style="edgeStyle=orthogonalEdgeStyle;rounded=0;orthogonalLoop=1;jettySize=auto;html=1;" edge="1" parent="WIyWlLk6GJQsqaUBKTNV-1" source="EfzO_st6ndVhNeIX4S6R-18" target="EfzO_st6ndVhNeIX4S6R-22">
          <mxGeometry relative="1" as="geometry">
            <mxPoint x="370" y="500" as="targetPoint" />
          </mxGeometry>
        </mxCell>
        <mxCell id="EfzO_st6ndVhNeIX4S6R-18" value="Увеличиваем i на 1" style="rounded=0;whiteSpace=wrap;html=1;" vertex="1" parent="WIyWlLk6GJQsqaUBKTNV-1">
          <mxGeometry x="320" y="440" width="100" height="30" as="geometry" />
        </mxCell>
        <mxCell id="EfzO_st6ndVhNeIX4S6R-19" value="Нет" style="text;html=1;strokeColor=none;fillColor=none;align=center;verticalAlign=middle;whiteSpace=wrap;rounded=0;" vertex="1" parent="WIyWlLk6GJQsqaUBKTNV-1">
          <mxGeometry x="423.5" y="280" width="40" height="20" as="geometry" />
        </mxCell>
        <mxCell id="EfzO_st6ndVhNeIX4S6R-20" value="Да" style="text;html=1;strokeColor=none;fillColor=none;align=center;verticalAlign=middle;whiteSpace=wrap;rounded=0;" vertex="1" parent="WIyWlLk6GJQsqaUBKTNV-1">
          <mxGeometry x="374" y="340" width="40" height="20" as="geometry" />
        </mxCell>
        <mxCell id="EfzO_st6ndVhNeIX4S6R-23" style="edgeStyle=orthogonalEdgeStyle;rounded=0;orthogonalLoop=1;jettySize=auto;html=1;" edge="1" parent="WIyWlLk6GJQsqaUBKTNV-1" source="EfzO_st6ndVhNeIX4S6R-22" target="EfzO_st6ndVhNeIX4S6R-24">
          <mxGeometry relative="1" as="geometry">
            <mxPoint x="370" y="560" as="targetPoint" />
          </mxGeometry>
        </mxCell>
        <mxCell id="EfzO_st6ndVhNeIX4S6R-22" value="Выводим quantity" style="rounded=0;whiteSpace=wrap;html=1;" vertex="1" parent="WIyWlLk6GJQsqaUBKTNV-1">
          <mxGeometry x="320" y="500" width="100" height="30" as="geometry" />
        </mxCell>
        <mxCell id="EfzO_st6ndVhNeIX4S6R-24" value="Конец" style="ellipse;whiteSpace=wrap;html=1;" vertex="1" parent="WIyWlLk6GJQsqaUBKTNV-1">
          <mxGeometry x="320" y="560" width="100" height="30" as="geometry" />
        </mxCell>
        <mxCell id="EfzO_st6ndVhNeIX4S6R-25" value="" style="endArrow=none;dashed=1;html=1;" edge="1" parent="WIyWlLk6GJQsqaUBKTNV-1">
          <mxGeometry width="50" height="50" relative="1" as="geometry">
            <mxPoint x="390" y="420" as="sourcePoint" />
            <mxPoint x="440" y="370" as="targetPoint" />
          </mxGeometry>
        </mxCell>
        <mxCell id="EfzO_st6ndVhNeIX4S6R-26" value="" style="endArrow=none;dashed=1;html=1;exitX=1;exitY=0.5;exitDx=0;exitDy=0;" edge="1" parent="WIyWlLk6GJQsqaUBKTNV-1" source="EfzO_st6ndVhNeIX4S6R-22">
          <mxGeometry width="50" height="50" relative="1" as="geometry">
            <mxPoint x="418.5" y="520" as="sourcePoint" />
            <mxPoint x="480" y="515" as="targetPoint" />
            <Array as="points" />
          </mxGeometry>
        </mxCell>
        <mxCell id="EfzO_st6ndVhNeIX4S6R-27" value="&lt;b&gt;#quantity-количество петель&lt;/b&gt;" style="strokeWidth=2;html=1;shape=mxgraph.flowchart.annotation_1;align=left;pointerEvents=1;" vertex="1" parent="WIyWlLk6GJQsqaUBKTNV-1">
          <mxGeometry x="475" y="480" width="50" height="70" as="geometry" />
        </mxCell>
      </root>
    </mxGraphModel>
  </diagram>
</mxfile>
